<svg width="43" height="35" viewBox="0 0 43 35" fill="none" xmlns="http://www.w3.org/2000/svg">
<path d="M20.1129 13.5149C20.1129 12.7493 20.7339 12.1287 21.5 12.1287H27.3952C28.1612 12.1287 28.7823 12.7493 28.7823 13.5149V33.6139C28.7823 34.3794 28.1612 35 27.3952 35H21.5C20.7339 35 20.1129 34.3794 20.1129 33.6139V13.5149Z" fill="black"/>
<path d="M20.1129 1.38614C20.1129 0.620596 20.7339 0 21.5 0H27.3952C28.1612 0 28.7823 0.620595 28.7823 1.38614V7.27723C28.7823 8.04277 28.1612 8.66337 27.3952 8.66337H21.5C20.7339 8.66337 20.1129 8.04277 20.1129 7.27723V1.38614Z" fill="black"/>
<path d="M34.3306 27.7228C34.3306 26.9572 34.9517 26.3366 35.7177 26.3366H41.6129C42.379 26.3366 43 26.9572 43 27.7228V33.6139C43 34.3794 42.379 35 41.6129 35H35.7177C34.9517 35 34.3306 34.3794 34.3306 33.6139V27.7228Z" fill="black"/>
<path d="M34.3306 1.38614C34.3306 0.620596 34.9517 0 35.7177 0H41.6129C42.379 0 43 0.620596 43 1.38614V21.4851C43 22.2507 42.379 22.8713 41.6129 22.8713H35.7177C34.9517 22.8713 34.3306 22.2507 34.3306 21.4851V1.38614Z" fill="black"/>
<path d="M0 22.5583C0 22.8163 0.0720747 23.0693 0.208112 23.2886L7.02248 34.2748C7.27541 34.6826 7.72137 34.9307 8.20147 34.9307H14.7254C15.8431 34.9307 16.5018 33.6774 15.8674 32.7578L9.28472 23.2158C8.7731 22.4742 9.09931 21.454 9.89082 21.023C11.4033 20.1994 12.5968 19.1133 13.4715 17.7648C14.6699 15.935 15.2692 13.8226 15.2692 11.4273C15.2692 8.06733 14.104 5.32277 11.7737 3.19366C9.47665 1.06455 6.09768 0 1.63678 0H1.4095C0.645529 0 0.0253795 0.617318 0.0224129 1.38075L0 7.14855C0 7.1717 0.0180527 7.19062 0.0412078 7.19131C1.73734 7.24203 4.13279 7.63938 5.03239 8.38337C5.99781 9.14852 6.48052 10.263 6.48052 11.7267C6.48052 13.1572 5.99781 14.2717 5.03239 15.0701C4.34767 15.6364 2.79639 16.0018 1.34647 16.1665C0.599664 16.2513 0 16.8617 0 17.6128V22.5583Z" fill="black"/>
</svg>
